<?xml version="1.0"?>
<svg xmlns="http://www.w3.org/2000/svg" width="77" height="87">
	<defs>
		<g id="edges">
			<line x1="5.5" y1="24.6" x2="38.5" y2="5.5" />
			<line x1="5.5" y1="24.6" x2="46.9" y2="29.2" />
			<line x1="5.5" y1="24.6" x2="34.8" y2="56.1" />
			<line x1="5.5" y1="24.6" x2="5.5" y2="62.9" />
			<line x1="38.5" y1="5.5" x2="46.9" y2="29.2" />
			<line x1="38.5" y1="5.5" x2="71.25" y2="24.6"  />
			<line x1="46.9" y1="29.2" x2="34.8" y2="56.1" />
			<line x1="46.9" y1="29.2" x2="58.2" y2="49.7"  />
			<line x1="46.9" y1="29.2" x2="71.25" y2="24.6" />
			<line x1="71.25" y1="24.6" x2="58.2" y2="49.7" />
			<line x1="71.25" y1="24.6" x2="71.25" y2="62.9" />
			<line x1="5.5" y1="62.9" x2="34.8" y2="56.1" />
			<line x1="5.5" y1="62.9" x2="38.5" y2="81.25" />
			<line x1="34.8" y1="56.1" x2="38.5" y2="81.25" />
			<line x1="34.8" y1="56.1" x2="58.2" y2="49.7" />
			<line x1="58.2" y1="49.7" x2="38.5" y2="81.25" />
			<line x1="58.2" y1="49.7" x2="71.25" y2="62.9" />
			<line x1="71.25" y1="62.9" x2="38.5" y2="81.25" />
		</g>
	</defs>
	<g id="faces">
		<polygon points="5.5,24.6 38.5,5.5 46.9,29.2" fill="#40b2fc" />
		<polygon points="46.9,29.2 38.5,5.5 71.25,24.6" fill="#40b2fc" />
		<polygon points="5.5,24.6 5.5,62.9 34.8,56.1" fill="#9119f6" />
		<polygon points="34.8,56.1 5.5,24.6 46.9,29.2" fill="#e16bfc" />
		<polygon points="46.9,29.2 34.8,56.1 58.2,49.7" fill="#e16bfc" />
		<polygon points="71.25,24.6 46.9,29.2 58.2,49.7" fill="#40b2fc" />
		<polygon points="71.25,24.6 71.25,62.9 58.2,49.7" fill="#40b2fc" />
		<polygon points="5.5,62.9 34.8,56.1 38.5,81.25" fill="#9119f6" />
		<polygon points="58.2,49.7 38.5,81.25 34.8,56.1" fill="#e16bfc" />
		<polygon points="38.5,81.25 71.25,62.9 58.2,49.7" fill="#e16bfc" />
	</g>
	<use id="edgeStroke" href="#edges" stroke="#000000" stroke-width="4.5" />
	<g id="vertexes" fill="#aaaaaa" stroke="#000000" stroke-width="1">
		<circle cx="5.5" cy="24.6" r="4.75" />
		<circle cx="38.5" cy="5.5" r="4.75" />
		<circle cx="46.9" cy="29.2" r="4.75" />
		<circle cx="71.25" cy="24.6" r="4.75" />
		<circle cx="5.5" cy="62.9" r="4.75" />
		<circle cx="34.8" cy="56.1" r="4.75" />
		<circle cx="58.2" cy="49.7" r="4.75" />
		<circle cx="71.25" cy="62.9" r="4.75" />
		<circle cx="38.5" cy="81.25" r="4.75" />
	</g>
	<use id="edgeFill" href="#edges" stroke="#aaaaaa" stroke-width="2.5" />
</svg>
