<svg xmlns="http://www.w3.org/2000/svg" viewBox="116.89 250 341.22 75"> <svg xmlns="http://www.w3.org/2000/svg" xmlns:xlink="http://www.w3.org/1999/xlink" version="1.1" x="116.88999938964844" y="250.00001959228516" viewBox="1.6999993324279785 2.3000001907348633 76 86.0999984741211" xml:space="preserve" height="75" width="66.20204380580357" preserveAspectRatio="xMinYMin" enable-background="new 0 0 79.4 90.7" style="overflow: visible;"><g id="Layer_3" style=""/><polygon class="st177" points="6.5,26.2 6.5,64.5 35.8,57.7   " style="fill: #9119f6; fill-opacity: 1;"/><polygon class="st33" points="6.5,26.2 39.7,7.1 47.9,30.8   " style="fill: #40B2FC; fill-opacity: 1;"/><polygon class="st13" points="35.8,57.7 6.5,26.2 47.9,30.8   " style="fill: #e16bfc; fill-opacity: 1;"/><polygon class="st33" points="72.8,26.2 72.8,64.5 59.2,51.3   " style="fill: #40B2FC; fill-opacity: 1;"/><polygon class="st13" points="39.7,83.6 72.8,64.5 59.2,51.3   " style="fill: #e16bfc; fill-opacity: 1;"/><polygon class="st13" points="59.2,51.3 39.7,83.6 35.8,57.7   " style="fill: #e16bfc; fill-opacity: 1;"/><polygon class="st13" points="47.9,30.8 35.8,57.7 59.2,51.3   " style="fill: #e16bfc; fill-opacity: 1;"/><polygon class="st177" points="6.5,64.5 35.8,57.7 39.7,83.6   " style="fill: #9119f6; fill-opacity: 1;"/><polygon class="st33" points="47.9,30.8 39.7,7.1 72.8,26.2   " style="fill: #40B2FC; fill-opacity: 1;"/><polygon class="st33" points="72.8,26.2 47.9,30.8 59.2,51.3   " style="fill: #40B2FC; fill-opacity: 1;"/><path stroke-width="1" stroke="#000" d="M74.3,60V30.8c1.9-0.6,3.3-2.4,3.3-4.5c0-2.7-2.1-4.8-4.8-4.8c-1.2,0-2.3,0.5-3.2,1.2L44.4,8.1    c0.1-0.3,0.1-0.6,0.1-1c0-2.7-2.1-4.8-4.8-4.8c-2.7,0-4.8,2.1-4.8,4.8c0,0.3,0,0.7,0.1,1L9.7,22.7c-0.8-0.8-2-1.2-3.2-1.2    c-2.7,0-4.8,2.1-4.8,4.8c0,2.1,1.4,3.9,3.3,4.5V60c-1.9,0.6-3.3,2.4-3.3,4.5c0,2.7,2.1,4.8,4.8,4.8c1.2,0,2.3-0.5,3.2-1.2L35,82.6    c-0.1,0.3-0.1,0.6-0.1,1c0,2.7,2.1,4.8,4.8,4.8c2.7,0,4.8-2.1,4.8-4.8c0-0.3,0-0.7-0.1-1l25.3-14.6c0.8,0.8,2,1.2,3.2,1.2    c2.7,0,4.8-2.1,4.8-4.8C77.6,62.4,76.2,60.6,74.3,60z M70.6,60.3l-7.2-6.9c0.3-0.6,0.5-1.3,0.5-2c0-1.3-0.5-2.4-1.3-3.2l8.7-16V60    C71.1,60,70.8,60.1,70.6,60.3z M40.5,78.9L38,62c1.5-0.8,2.5-2.3,2.6-4l14.5-4c0.1,0.2,0.3,0.3,0.4,0.5L40.8,78.9    C40.7,78.9,40.6,78.9,40.5,78.9z M10.9,28.2l32.3,3.6c0.2,1,0.7,1.9,1.5,2.5L36.3,53c-0.2,0-0.3,0-0.5,0c-0.7,0-1.4,0.2-2,0.4    L10.7,28.5C10.8,28.4,10.9,28.3,10.9,28.2z M68.6,28.5c0.2,0.4,0.4,0.7,0.7,1L60,46.6c-0.3-0.1-0.6-0.1-0.9-0.1    c-0.3,0-0.6,0-0.8,0.1L51.4,34c0.7-0.7,1.1-1.6,1.2-2.6L68.6,28.5z M39.8,55.1c-0.2-0.3-0.5-0.6-0.8-0.9l8.4-18.7    c0.2,0,0.3,0,0.5,0c0.3,0,0.6,0,0.9-0.1L55.6,48c-0.8,0.8-1.3,1.9-1.3,3.1L39.8,55.1z M68.1,25.6l-16,2.9C51.3,27,49.7,26,47.9,26    c0,0-0.1,0-0.1,0l-5.3-15.1c0.1-0.1,0.2-0.1,0.3-0.2l25.3,14.6C68.1,25.3,68.1,25.5,68.1,25.6z M39.7,11.9    C39.7,11.9,39.7,11.9,39.7,11.9L45,27c-0.6,0.5-1.1,1.1-1.5,1.8l-32.3-3.6l25.2-14.6C37.4,11.4,38.5,11.9,39.7,11.9z M8.5,30.6    l23.1,24.8c-0.3,0.6-0.5,1.2-0.6,1.9L10.6,62C10,61,9.1,60.3,8,60V30.8C8.2,30.7,8.4,30.6,8.5,30.6z M11.3,64.9l20.4-4.7    c0.7,1.2,1.9,2,3.3,2.2l2.5,16.9c-0.4,0.2-0.7,0.4-1,0.7L11.2,65.5C11.3,65.3,11.3,65.1,11.3,64.9z M58.1,56    c0.3,0.1,0.7,0.1,1,0.1c0.8,0,1.6-0.2,2.3-0.6l7.1,6.9C68.2,63,68,63.7,68,64.5c0,0.3,0,0.7,0.1,1L44,79.4L58.1,56z" style="fill: #AAA; fill-opacity: 1;"/></svg> <svg xmlns="http://www.w3.org/2000/svg" x="193.88999938964844" y="271.00601959228516" viewBox="4.090000152587891 13.600000381469727 264.2200012207031 44" height="44" width="264.2200012207031" style="overflow: visible;"><g fill="#FFF" fill-opacity="1" style=""><path d="M29.79 31.02L29.79 31.02Q29.79 36.30 27.79 39.86Q25.78 43.43 22.02 45.23Q18.26 47.04 12.94 47.04L12.94 47.04L4.09 47.04L4.09 15.62L13.86 15.62Q18.74 15.62 22.31 17.38Q25.87 19.14 27.83 22.55Q29.79 25.96 29.79 31.02ZM23.89 31.20L23.89 31.20Q23.89 27.46 22.75 25.04Q21.60 22.62 19.36 21.45Q17.12 20.28 13.86 20.28L13.86 20.28L9.72 20.28L9.72 42.33L13.11 42.33Q18.57 42.33 21.23 39.53Q23.89 36.74 23.89 31.20ZM35.95 23.19L41.49 23.19L41.49 47.04L35.95 47.04L35.95 23.19ZM38.72 13.99L38.72 13.99Q39.95 13.99 40.88 14.63Q41.80 15.27 41.80 16.90L41.80 16.90Q41.80 18.48 40.88 19.16Q39.95 19.84 38.72 19.84L38.72 19.84Q37.44 19.84 36.54 19.16Q35.64 18.48 35.64 16.90L35.64 16.90Q35.64 15.27 36.54 14.63Q37.44 13.99 38.72 13.99ZM56.58 22.75L56.58 22.75Q58.83 22.75 60.63 23.63Q62.44 24.51 63.67 26.27L63.67 26.27L63.89 26.27L64.42 23.19L69.04 23.19L69.04 47.21Q69.04 50.60 67.76 52.91Q66.48 55.22 63.93 56.41Q61.38 57.60 57.55 57.60L57.55 57.60Q55 57.60 52.84 57.27Q50.69 56.94 48.75 56.14L48.75 56.14L48.75 51.57Q50.78 52.45 53.09 52.93Q55.40 53.42 57.90 53.42L57.90 53.42Q60.63 53.42 62.06 51.88Q63.49 50.34 63.49 47.48L63.49 47.48L63.49 46.86Q63.49 46.20 63.56 45.32Q63.62 44.44 63.67 43.91L63.67 43.91L63.49 43.91Q62.26 45.76 60.50 46.62Q58.74 47.48 56.45 47.48L56.45 47.48Q52.10 47.48 49.63 44.22Q47.17 40.96 47.17 35.16L47.17 35.16Q47.17 29.35 49.68 26.05Q52.18 22.75 56.58 22.75ZM58.04 27.28L58.04 27.28Q56.36 27.28 55.20 28.18Q54.03 29.08 53.44 30.84Q52.84 32.60 52.84 35.24L52.84 35.24Q52.84 39.12 54.16 41.10Q55.48 43.08 58.12 43.08L58.12 43.08Q59.62 43.08 60.68 42.70Q61.73 42.33 62.41 41.47Q63.10 40.61 63.45 39.27Q63.80 37.93 63.80 36.04L63.80 36.04L63.80 35.20Q63.80 32.34 63.18 30.60Q62.57 28.86 61.31 28.07Q60.06 27.28 58.04 27.28ZM76.12 23.19L81.66 23.19L81.66 47.04L76.12 47.04L76.12 23.19ZM78.89 13.99L78.89 13.99Q80.12 13.99 81.05 14.63Q81.97 15.27 81.97 16.90L81.97 16.90Q81.97 18.48 81.05 19.16Q80.12 19.84 78.89 19.84L78.89 19.84Q77.62 19.84 76.71 19.16Q75.81 18.48 75.81 16.90L75.81 16.90Q75.81 15.27 76.71 14.63Q77.62 13.99 78.89 13.99ZM97.99 43.03L97.99 43.03Q99.04 43.03 100.01 42.83Q100.98 42.64 101.82 42.37L101.82 42.37L101.82 46.51Q100.94 46.90 99.53 47.19Q98.12 47.48 96.58 47.48L96.58 47.48Q94.56 47.48 92.91 46.79Q91.26 46.11 90.27 44.44Q89.28 42.77 89.28 39.78L89.28 39.78L89.28 27.37L86.06 27.37L86.06 24.95L89.58 23.01L91.34 17.95L94.82 17.95L94.82 23.19L101.60 23.19L101.60 27.37L94.82 27.37L94.82 39.73Q94.82 41.40 95.70 42.22Q96.58 43.03 97.99 43.03ZM116.12 22.75L116.12 22.75Q120.74 22.75 123.13 24.75Q125.53 26.75 125.53 31.02L125.53 31.02L125.53 47.04L121.62 47.04L120.52 43.74L120.34 43.74Q119.33 45.01 118.25 45.87Q117.17 46.73 115.79 47.10Q114.40 47.48 112.42 47.48L112.42 47.48Q110.31 47.48 108.61 46.68Q106.92 45.89 105.95 44.24Q104.98 42.59 104.98 40.08L104.98 40.08Q104.98 36.39 107.69 34.52Q110.40 32.65 115.90 32.47L115.90 32.47L120.03 32.34L120.03 31.15Q120.03 28.86 118.93 27.90Q117.83 26.93 115.85 26.93L115.85 26.93Q114.05 26.93 112.38 27.46Q110.70 27.98 109.12 28.69L109.12 28.69L107.36 24.82Q109.12 23.89 111.39 23.32Q113.65 22.75 116.12 22.75ZM120.03 35.77L117.13 35.86Q113.48 35.99 112.07 37.11Q110.66 38.24 110.66 40.13L110.66 40.13Q110.66 41.80 111.67 42.55Q112.68 43.30 114.27 43.30L114.27 43.30Q116.69 43.30 118.36 41.91Q120.03 40.52 120.03 37.80L120.03 37.80L120.03 35.77ZM138.03 13.60L138.03 47.04L132.48 47.04L132.48 13.60L138.03 13.60ZM168.34 20.37L168.34 47.04L162.71 47.04L162.71 20.37L153.69 20.37L153.69 15.62L177.36 15.62L177.36 20.37L168.34 20.37ZM194.13 22.75L194.13 22.75Q194.66 22.75 195.36 22.79Q196.06 22.84 196.55 22.97L196.55 22.97L196.06 28.12Q195.67 28.03 195.03 27.96Q194.39 27.90 193.91 27.90L193.91 27.90Q192.59 27.90 191.38 28.31Q190.17 28.73 189.22 29.55Q188.28 30.36 187.73 31.64Q187.18 32.91 187.18 34.67L187.18 34.67L187.18 47.04L181.63 47.04L181.63 23.19L185.90 23.19L186.69 27.32L186.96 27.32Q187.66 26.05 188.72 25.01Q189.77 23.98 191.16 23.36Q192.54 22.75 194.13 22.75ZM210.45 22.75L210.45 22.75Q215.07 22.75 217.47 24.75Q219.87 26.75 219.87 31.02L219.87 31.02L219.87 47.04L215.95 47.04L214.85 43.74L214.68 43.74Q213.66 45.01 212.59 45.87Q211.51 46.73 210.12 47.10Q208.74 47.48 206.76 47.48L206.76 47.48Q204.64 47.48 202.95 46.68Q201.26 45.89 200.29 44.24Q199.32 42.59 199.32 40.08L199.32 40.08Q199.32 36.39 202.03 34.52Q204.73 32.65 210.23 32.47L210.23 32.47L214.37 32.34L214.37 31.15Q214.37 28.86 213.27 27.90Q212.17 26.93 210.19 26.93L210.19 26.93Q208.38 26.93 206.71 27.46Q205.04 27.98 203.46 28.69L203.46 28.69L201.70 24.82Q203.46 23.89 205.72 23.32Q207.99 22.75 210.45 22.75ZM214.37 35.77L211.46 35.86Q207.81 35.99 206.40 37.11Q205.00 38.24 205.00 40.13L205.00 40.13Q205.00 41.80 206.01 42.55Q207.02 43.30 208.60 43.30L208.60 43.30Q211.02 43.30 212.70 41.91Q214.37 40.52 214.37 37.80L214.37 37.80L214.37 35.77ZM226.82 23.19L232.36 23.19L232.36 47.04L226.82 47.04L226.82 23.19ZM229.59 13.99L229.59 13.99Q230.82 13.99 231.75 14.63Q232.67 15.27 232.67 16.90L232.67 16.90Q232.67 18.48 231.75 19.16Q230.82 19.84 229.59 19.84L229.59 19.84Q228.32 19.84 227.41 19.16Q226.51 18.48 226.51 16.90L226.51 16.90Q226.51 15.27 227.41 14.63Q228.32 13.99 229.59 13.99ZM244.99 13.60L244.99 47.04L239.45 47.04L239.45 13.60L244.99 13.60ZM268.31 40.13L268.31 40.13Q268.31 42.50 267.17 44.15Q266.02 45.80 263.80 46.64Q261.58 47.48 258.37 47.48L258.37 47.48Q255.86 47.48 254.06 47.12Q252.25 46.77 250.62 46.02L250.62 46.02L250.62 41.32Q252.38 42.15 254.54 42.72Q256.70 43.30 258.54 43.30L258.54 43.30Q260.83 43.30 261.84 42.59Q262.86 41.89 262.86 40.70L262.86 40.70Q262.86 40.00 262.46 39.42Q262.06 38.85 260.92 38.21Q259.78 37.58 257.44 36.61L257.44 36.61Q255.16 35.68 253.64 34.76Q252.12 33.84 251.35 32.54Q250.58 31.24 250.58 29.26L250.58 29.26Q250.58 26.05 253.13 24.40Q255.68 22.75 259.86 22.75L259.86 22.75Q262.06 22.75 264.02 23.17Q265.98 23.58 267.96 24.51L267.96 24.51L266.20 28.60Q264.57 27.90 262.97 27.41Q261.36 26.93 259.69 26.93L259.69 26.93Q257.88 26.93 256.96 27.48Q256.04 28.03 256.04 29.00L256.04 29.00Q256.04 29.74 256.50 30.29Q256.96 30.84 258.13 31.39Q259.29 31.94 261.45 32.82L261.45 32.82Q263.60 33.66 265.12 34.56Q266.64 35.46 267.48 36.78Q268.31 38.10 268.31 40.13Z" transform="translate(0, 0)"/></g></svg></svg>